<svg version="1.2" xmlns="http://www.w3.org/2000/svg" viewBox="0 0 215 40" width="215" height="40">
	<title>logo-svg</title>
	<style>
		.s0 { fill: #333333 } 
		.s1 { fill: #f44336 } 
	</style>
	<path id="Layer" fill-rule="evenodd" class="s0" d="m69 29.3l2.4-19.5q-2.6-0.3-3.4-0.3-0.2 0-0.5 0-0.4 0-0.5 0-0.2 0-0.3 0l-1.8 6.3-1.9-0.2v-7.8q5.2-0.4 12-0.5h2.2l7.2 0.1-1.6 8.4-1.9-0.2-0.5-5.7q-2.7-0.4-5-0.5l-2.5 20.4 4.9 0.5-0.3 1.7h-13.2l0.5-1.7zm26.6-14q0.9 0.9 0.9 2.4 0 2.8-2.9 4.9-2.4 1.7-5.5 2.7 0.1 4.7 3.2 4.7 2.3 0 4.1-2.9l0.7 0.7q-0.7 1.9-2.4 3.4-1.7 1.4-4 1.4-2.2 0-3.4-1.7-1.3-1.7-1.3-4.7 0-2.9 1.1-5.6 1.2-2.8 3.1-4.5 1.9-1.8 4-1.8 1.5 0 2.4 1zm-2.1 3q0-1-0.4-1.4-0.4-0.5-1.2-0.4-3.3 0-3.8 7.3 5.4-1.9 5.4-5.5zm12.4 2q0-0.3-0.2-1.4-0.3-2-1.1-2.4-0.3-0.2-0.7-0.2-1.7 0-2.7 2.2-0.9 2.1-0.9 5.8 0 1.9 0.3 3 0.3 1.2 1.1 2 0.9 0.8 2.2 0.8h0.1q0.9 0 1.8-0.7 1-0.7 1.6-1.9l0.7 0.6q-0.4 1.8-2.2 3.1-1.8 1.4-3.7 1.4-2.5 0-3.8-2-1.3-1.9-1.3-5.1 0-2.2 0.7-4.3 0.7-2 1.9-3.5 1.1-1.5 2.6-2.4 1.4-0.9 3-0.9 1.5 0 2.5 0.9 0.9 0.9 0.9 2.3 0 1.3-0.7 2-0.6 0.6-2.1 0.7zm5 3.1l1.8-13.9-2.7-0.5 0.2-1.5 5.6-0.4 0.3 0.4-1.2 8.3-1.2 5.1h0.2q0.9-2.7 2.6-4.6 1.7-1.8 3.3-1.8 1.6 0 2.4 0.8 0.8 0.8 0.8 2.1 0 1.4-0.2 2.6l-0.9 7q-0.1 0.6-0.1 1.4 0 1.2 0.7 1.2 0.6 0 1.6-0.7 0.9-0.7 1.5-1.8l0.8 0.6q-0.9 2.4-2.3 3.5-1.4 1.2-3.6 1.2-2 0-1.9-2.4 0-1.2 0.4-3.9l0.4-3.6q0.3-1.9 0.3-3.1 0-0.8-0.2-1.1-0.3-0.4-0.8-0.4-1.6 0-2.8 1.7-1.2 1.6-2.1 5.6-0.1 4.1-0.9 5.6-0.8 1.6-2.4 1.6-0.2 0-0.9 0l-0.3-0.6zm30.2-15.1q1.2-1.2 2.9-1.2 2.4 0 3.5 2.2 0.5 1 0.5 2.5 0 0.1-0.1 1.2-0.3 3.8-2.3 8.2-2.1 4.5-4.8 8-1.5 1.8-2.4 2.7l-2.8 0.6-4.2-21.8-4.3-0.8 0.4-1.5q3.9-0.9 7.7-1l3.6 20.9h0.2q1.1-1.2 2.1-2.8 2.1-3.3 2.8-7.6 0.2-0.8 0.2-2 0-2.6-1-4.8-0.9-1.8-2-2.8zm21.5 0q1.3-1.2 2.9-1.2 2.4 0 3.5 2.2 0.6 1 0.6 2.5 0 0.1-0.1 1.2-0.4 3.8-2.4 8.2-2 4.5-4.7 8-1.5 1.8-2.5 2.7l-2.8 0.6-4.1-21.8-4.4-0.8 0.4-1.5q4-0.9 7.7-1l3.7 20.9h0.1q1.2-1.2 2.2-2.8 2.1-3.3 2.8-7.6 0.1-0.8 0.1-2 0-2.6-0.9-4.8-0.9-1.8-2.1-2.8zm18.8 5.8l0.2-0.2 2.3 0.7-1.4 7.7-0.6 4.7q-0.1 1.1-0.1 1.7 0 1 0.9 1 0.5 0 1.4-1 0.9-1 1.6-2.1l0.8 0.7q-1.1 2.7-2.4 4-1.3 1.3-3.4 1.3-1 0-1.5-0.7-0.5-0.7-0.5-2.2 0-1.4 0.7-3.4h-0.3q-1 2.5-2.7 4.3-1.7 1.8-3.3 1.8-1.6 0-2.3-1.2-0.6-1.2-0.6-3.7 0-2.4 1.1-5.5 1.1-3.1 3-5.4 1.9-2.2 3.8-2.2 1.8 0 2.8 1.4h0.2zm-8.1 12.3q0 1.7 0.2 2.3 0.3 0.7 1 0.7 1.5 0 3.3-3 1.9-3 2.7-7.4-0.4-0.8-1.2-1.5-0.9-0.6-1.8-0.6-1 0-1.9 0.9-0.8 0.9-1.3 2.5-1 3.1-1 6.1zm20.6-1.5q-0.1 0.8-0.3 2.6-0.1 1.9-0.2 2.4-0.5 1.8-1.3 2.2-0.5 0.5-0.9 0.5-0.4 0.1-0.7 0.1-0.4 0-0.8-0.2l-0.3-0.5 1.6-7.6 0.5-4.1q0-0.8 0-1.5 0-0.7 0-0.9-0.1-0.2-0.3-0.3-0.1-0.2-0.3-0.2-0.3-0.1-0.6 0.2-0.5 0.3-1.3 1.4-0.8 1.2-0.9 1.4l-1-0.7q1-2.7 3.4-4.5 0.7-0.5 1.2-0.7l0.9-0.2q1.4 0 1.9 1.3 0.1 0.4 0.1 1v0.3q0 0.8-0.2 1.5l-0.6 2.9h0.3q0.3-1 0.7-1.9 0.4-1 1-2.1 0.6-1 1.5-1.7 0.9-0.6 1.8-0.6 1.1 0 1.7 0.7 0.6 0.7 0.6 1.9 0 1.4-0.9 2.4-0.4 0.5-1.2 0.8 0-0.1-0.2-0.5-0.2-0.4-0.3-0.6-0.2-0.2-0.4-0.5-0.2-0.3-0.4-0.4-0.3-0.2-0.6-0.2-0.9 0-2 2.3-1.2 2.3-1.5 4zm18.6-9.6q0.9 0.9 0.9 2.4 0 2.9-2.9 4.9-2.4 1.7-5.5 2.7 0.2 4.7 3.2 4.7 2.3 0 4.1-2.8l0.7 0.6q-0.6 2-2.4 3.4-1.7 1.4-4 1.4-2.2 0-3.5-1.7-1.2-1.7-1.2-4.7 0-2.9 1.1-5.6 1.2-2.8 3.1-4.5 1.9-1.7 4-1.7 1.5 0 2.4 0.9zm-2.1 3q0-0.9-0.4-1.4-0.4-0.4-1.2-0.4-3.3 0-3.8 7.4 5.4-2 5.4-5.6z"/>
	<g id="Layer" style="opacity: .8">
		<path id="Layer" class="s1" d="m19.1 25.4h-5.1l9-10.7h-5l10.1-13.7-19 14h5l-9 10.7h5l-10.1 13.7zm9.3 0l9-10.7h-5.1l10.1-13.7-19 13.9h5l-9 10.7h5l-10.1 13.8 19-13.9zm18.2-10.7l10.1-13.8-19 14h5l-9 10.7h5l-10.1 13.7 19.1-13.9h-5.1l9-10.7z"/>
	</g>
</svg>